# AST/ASF file generated using VICON BodyLanguage
# -----------------------------------------------
:version 1.10
:name VICON
:units
  mass 1.0
  length 0.45
  angle deg
:documentation
   .ast/.asf automatically generated from VICON data using
   VICON BodyBuilder and BodyLanguage model FoxedUp or BRILLIANT.MOD
:root
   order TX TY TZ RX RY RZ
   axis XYZ
   position 0 0 0  
   orientation 0 0 0 
:bonedata
  begin
     id 1 
     name lhipjoint
     direction 0.521452 -0.77106 0.36545 
     length 2.0933 
     axis 0 0 0  XYZ
  end
  begin
     id 2 
     name lfemur
     direction 0.34202 -0.939693 0  
     length 6.83441  
     axis 0 0 20  XYZ
    dof rx ry rz
    limits (-160.0 20.0)
           (-70.0 70.0)
           (-60.0 70.0)
  end
  begin
     id 3 
     name ltibia
     direction 0.34202 -0.939693 0   
     length 7.28749   
     axis 0 0 20   XYZ
    dof rx
    limits (-10.0 170.0)
  end
  begin
     id 4 
     name lfoot
     direction 0.100608 -0.276418 0.955757   
     length 1.52195   
     axis -90 7.62852e-016 20   XYZ
    dof rx rz
    limits (-45.0 90.0)
           (-70.0 20.0)
  end
  begin
     id 5 
     name ltoes
     direction 1.53558e-011 -4.21907e-011 1   
     length 0.770459   
     axis -90 7.62852e-016 20   XYZ
    dof rx
    limits (-90.0 20.0)
  end
  begin
     id 6 
     name rhipjoint
     direction -0.488071 -0.788702 0.373812   
     length 2.04648  
     axis 0 0 0  XYZ 
  end
  begin
     id 7 
     name rfemur
     direction -0.34202 -0.939693 0   
     length 6.92583   
     axis 0 0 -20   XYZ
    dof rx ry rz
    limits (-160.0 20.0)
           (-70.0 70.0)
           (-70.0 60.0)
  end
  begin
     id 8 
     name rtibia
     direction -0.34202 -0.939693 0   
     length 7.41043   
     axis 0 0 -20   XYZ
    dof rx
    limits (-10.0 170.0)
 end
 begin
     id 9 
     name rfoot
     direction -0.0784433 -0.215521 0.973343   
     length 1.67708  
     axis -90 -7.62852e-016 -20   XYZ
    dof rx rz
    limits (-45.0 90.0)
           (-20.0 70.0)
  end
  begin
     id 10 
     name rtoes
     direction -1.53551e-011 -4.21842e-011 1   
     length 0.849787   
     axis -90 -7.62852e-016 -20   XYZ
    dof rx
    limits (-90.0 20.0)
  end
  begin
     id 11 
     name lowerback
     direction -0.0122332 0.997575 -0.0685192   
     length 1.98724   
     axis 0 0 0   XYZ
    dof rx ry rz
    limits (-20.0 45.0)
           (-30.0 30.0)
           (-30.0 30.0)
  end
  begin
     id 12 
     name upperback
     direction 0.0182347 0.999724 -0.0148421   
     length 1.99029   
     axis 0 0 0   XYZ
    dof rx ry rz
    limits (-20.0 45.0)
           (-30.0 30.0)
           (-30.0 30.0)
  end
  begin
     id 13 
     name thorax
     direction 0.0242908 0.99956 0.0170184   
     length 1.99573   
     axis 0 0 0   XYZ
    dof rx ry rz
    limits (-20.0 45.0)
           (-30.0 30.0)
           (-30.0 30.0)
  end
  begin
     id 14 
     name lowerneck
     direction 0.0654488 0.985533 0.156338   
     length 1.4285   
     axis 0 0 0   XYZ
    dof rx ry rz
    limits (-20.0 45.0)
           (-30.0 30.0)
           (-30.0 30.0)
  end
  begin
     id 15 
     name upperneck
     direction -0.02953 0.998556 -0.0448842   
     length 1.44709   
     axis 0 0 0   XYZ
    dof rx ry rz
    limits (-20.0 45.0)
           (-30.0 30.0)
           (-30.0 30.0)
  end
  begin
     id 16
     name head
     direction -0.0155588 0.999386 -0.0314063  
     length 1.44689  
     axis 0 0 0   XYZ
    dof rx ry rz
    limits (-20.0 45.0)
           (-30.0 30.0)
           (-30.0 30.0)
  end
  begin
     id 17 
     name lclavicle
     direction 0.968229 0.236071 -0.0824755  
     length 3.60593  
     axis 0 0 0   XYZ
    dof ry rz
    limits (-20.0 10.0)
           (0.0 20.0)
  end
  begin
     id 18 
     name lhumerus
     direction 1 -4.48968e-011 7.8138e-029   
     length 5.06035   
     axis 180 -30 -90   XYZ
    dof rx ry rz
    limits (-60.0 90.0)
           (-90.0 90.0)
           (-90.0 90.0)
  end
  begin
     id 19
     name lradius
     direction 1 -4.48967e-011 9.02887e-028   
     length 3.1478   
     axis 180 -30 -90   XYZ
    dof rx
    limits (-10.0 170.0)
  end
  begin
     id 20
     name lwrist
     direction 1 -4.48961e-011 7.20928e-028   
     length 1.5739   
     axis -5.52449e-016 90 90   XYZ
    dof ry
    limits (-180.0 0.0)
 end
  begin
     id 21 
     name lhand
     direction 1 -4.48972e-011 1.44186e-027   
     length 0.606747   
     axis -9.20027e-016 90 90   XYZ
    dof rx rz
    limits (-90.0 90.0)
           (-45.0 45.0)
  end
  begin
     id 22 
     name lfingers
     direction 1 -4.48943e-011 2.88371e-027   
     length 0.489175   
     axis -1.84005e-015 90 90   XYZ
    dof rx
    limits (0.0 90.0)
  end
  begin
     id 23
     name lthumb
     direction 0.707107 -6.34917e-011 0.707107   
     length 0.70236   
     axis -90 45 2.85299e-015   XYZ
    dof rx rz
    limits (-45.0 45.0)
           (-45.0 45.0)
  end
  begin
     id 24 
     name rclavicle
     direction -0.978165 0.207816 0.0022268   
     length 3.35425  
     axis 0 0 0   XYZ 
    dof ry rz
    limits (-10.0 20.0)
           (-20.0 0.0)
  end
  begin
     id 25 
     name rhumerus
     direction -1 -4.48964e-011 -4.02159e-027  
     length 5.12273   
     axis 180 30 90   XYZ
    dof rx ry rz
    limits (-90.0 60.0)
           (-90.0 90.0)
           (-90.0 90.0)
  end
  begin
     id 26 
     name rradius
     direction -1 -4.48966e-011 1.62746e-027   
     length 3.422   
     axis 180 30 90   XYZ
    dof rx
    limits (-10.0 170.0)
  end
  begin
     id 27 
     name rwrist
     direction -1 -4.4896e-011 7.20928e-028   
     length 1.711   
     axis -5.52449e-016 -90 -90   XYZ
    dof ry
    limits (-180.0 0.0)
  end
  begin
     id 28
     name rhand
     direction -1 -4.48979e-011 1.44186e-027   
     length 0.704599   
     axis -9.20027e-016 -90 -90   XYZ
    dof rx rz
    limits (-90.0 90.0)
           (-45.0 45.0)
  end
  begin
     id 29
     name rfingers
     direction -1 -4.48962e-011 2.88371e-027   
     length 0.568066   
     axis -1.84005e-015 -90 -90   XYZ
    dof rx
    limits (0.0 90.0)
  end
  begin
     id 30
     name rthumb
     direction -0.707107 -6.34949e-011 0.707107   
     length 0.815633   
     axis -90 -45 -2.85299e-015   XYZ
    dof rx rz
    limits (-45.0 45.0)
           (-45.0 45.0)
  end
:hierarchy
  begin
    root lhipjoint rhipjoint lowerback
    lhipjoint lfemur
    lfemur ltibia
    ltibia lfoot
    lfoot ltoes
    rhipjoint rfemur
    rfemur rtibia
    rtibia rfoot
    rfoot rtoes
    lowerback upperback
    upperback thorax
    thorax lowerneck lclavicle rclavicle
    lowerneck upperneck
    upperneck head
    lclavicle lhumerus
    lhumerus lradius
    lradius lwrist
    lwrist lhand lthumb
    lhand lfingers
    rclavicle rhumerus
    rhumerus rradius
    rradius rwrist
    rwrist rhand rthumb
    rhand rfingers
  end

#!OML:ASF E:\id_vita\Project 1\Capture day 1\Session 1\Male1.ASF
:FULLY-SPECIFIED
:DEGREES
772
root 3.12944 27.1953 0.0450642 -151.648 82.0243 -165.983
lowerback 10.7832 0.422961 -9.50114
upperback 7.56588 0.277993 -2.78233
thorax 1.94963 0.0485688 2.39426
lowerneck 9.56829 6.64698 8.55917
upperneck -12.4583 9.94336 -3.40595
head -4.71492 4.7948 -3.06128
rclavicle 1.35174e-014 -1.43125e-014
rhumerus 32.7495 18.6489 -73.3777
rradius 118.473
rwrist 5.27042
rhand -32.1972 32.8151
rfingers 7.12502
rthumb -5.43914 2.90491
lclavicle 1.35174e-014 -1.43125e-014
lhumerus 40.4521 -6.69054 62.8113
lradius 123.69
lwrist -7.27336
lhand -28.0893 47.1983
lfingers 7.12502
lthumb -1.47219 77.173
rfemur -30.7923 -2.49609 19.4321
rtibia 27.2527
rfoot -6.62809 -9.2071
rtoes -11.8986
lfemur -30.4629 -0.855512 -16.731
ltibia 33.9956
lfoot -20.7936 -2.78177
ltoes 26.9548
773
root 3.13386 27.1958 0.0292416 -151.038 82.0551 -165.249
lowerback 10.8323 0.43328 -9.31884
upperback 7.60806 0.306711 -2.8052
thorax 1.96129 0.0698367 2.26676
lowerneck 9.55306 6.63131 8.6429
upperneck -12.4291 9.9305 -3.42188
head -4.69936 4.78678 -3.07644
rclavicle -2.22639e-014 -6.36111e-015
rhumerus 32.6749 18.6493 -73.4224
rradius 118.452
rwrist 5.36691
rhand -32.2069 32.8981
rfingers 7.12502
rthumb -5.44849 2.98815
lclavicle -2.22639e-014 -6.36111e-015
lhumerus 40.4647 -6.87985 62.6103
lradius 123.658
lwrist -7.90355
lhand -28.1303 47.9519
lfingers 7.12502
lthumb -1.51175 77.9263
rfemur -30.6048 -2.50532 19.4731
rtibia 27.1714
rfoot -6.59966 -9.13908
rtoes -11.9056
lfemur -30.3115 -0.917136 -16.6766
ltibia 34.0227
lfoot -20.8527 -2.71475
ltoes 27.1471
774
root 3.13971 27.1962 0.0154022 -150.865 82.1252 -165.087
lowerback 10.7469 0.432858 -9.21923
upperback 7.60436 0.324535 -2.87698
thorax 2.00008 0.0827597 2.13545
lowerneck 10.07 6.50239 8.64363
upperneck -12.7183 9.83023 -3.28394
head -4.88948 4.71844 -3.06368
rclavicle 2.38542e-015 -2.06736e-014
rhumerus 32.7013 18.7234 -73.4354
rradius 118.463
rwrist 5.71154
rhand -32.1645 32.9666
rfingers 7.12502
rthumb -5.40755 3.05557
lclavicle 2.38542e-015 -2.06736e-014
lhumerus 40.4174 -7.14488 62.3617
lradius 123.704
lwrist -8.75422
lhand -28.087 48.9374
lfingers 7.12502
lthumb -1.46997 78.9121
rfemur -30.5856 -2.45022 19.4044
rtibia 27.12
rfoot -6.62822 -9.12266
rtoes -11.8556
lfemur -30.2888 -1.0848 -16.6914
ltibia 34.0648
lfoot -20.916 -2.50221
ltoes 27.0911
775
root 3.13707 27.1936 0.000412391 -150.165 82.2707 -164.487
lowerback 10.6051 0.48277 -9.13531
upperback 7.5632 0.405182 -2.90616
thorax 2.02311 0.124515 2.05233
lowerneck 10.2011 6.52347 8.67389
upperneck -12.8316 9.90249 -3.14354
head -4.94929 4.74086 -3.0394
rclavicle 2.54444e-014 2.22639e-014
rhumerus 32.7117 18.7308 -73.3937
rradius 118.457
rwrist 5.9099
rhand -32.1536 32.9556
rfingers 7.12502
rthumb -5.39708 3.04432
lclavicle 2.54444e-014 2.22639e-014
lhumerus 40.377 -7.41022 62.2693
lradius 123.723
lwrist -9.34269
lhand -28.1049 49.706
lfingers 7.12502
lthumb -1.48727 79.6806
rfemur -30.7534 -2.51282 19.4214
rtibia 27.1134
rfoot -6.6698 -8.92192
rtoes -12.053
lfemur -30.3897 -1.30773 -16.6651
ltibia 34.0794
lfoot -20.909 -2.09425
ltoes 26.9024
776
root 3.12964 27.1899 -0.0157731 -150.441 82.3564 -164.884
lowerback 10.4726 0.481898 -9.17034
upperback 7.54573 0.413017 -2.91552
thorax 2.07639 0.124494 2.06201
lowerneck 9.71257 6.52882 8.7313
upperneck -12.4377 9.84988 -3.21852
head -4.74165 4.729 -3.03214
rclavicle -5.56597e-015 3.18055e-014
rhumerus 32.6673 18.6965 -73.3549
rradius 118.435
rwrist 5.82153
rhand -32.1897 32.9494
rfingers 7.12502
rthumb -5.43193 3.03905
lclavicle -5.56597e-015 3.18055e-014
lhumerus 40.4004 -7.47437 62.28
lradius 123.627
lwrist -9.52144
lhand -28.2051 50.0988
lfingers 7.12502
lthumb -1.58397 80.0727
rfemur -30.9597 -2.71102 19.3373
rtibia 27.1476
rfoot -6.70735 -8.68205
rtoes -12.2269
lfemur -30.5433 -1.43827 -16.7901
ltibia 34.0669
lfoot -20.8365 -1.86159
ltoes 26.9152
777
root 3.12962 27.1925 -0.0169654 -151.688 82.3374 -166.05
lowerback 10.5116 0.46655 -9.44014
upperback 7.57912 0.375644 -2.91123
thorax 2.10046 0.096297 2.21836
lowerneck 9.93741 6.51756 8.7752
upperneck -12.55 9.8629 -3.2301
head -4.81039 4.73043 -3.05692
rclavicle -1.59028e-014 -3.49861e-014
rhumerus 32.6104 18.7552 -73.3553
rradius 118.481
rwrist 5.8662
rhand -32.1821 32.968
rfingers 7.12502
rthumb -5.42451 3.05745
lclavicle -1.59028e-014 -3.49861e-014
lhumerus 40.403 -7.40623 62.284
lradius 123.543
lwrist -9.40738
lhand -28.4478 49.9831
lfingers 7.12502
lthumb -1.81838 79.9551
rfemur -30.8574 -2.68435 19.1467
rtibia 27.1836
rfoot -6.76428 -8.75439
rtoes -11.8761
lfemur -30.4467 -1.2925 -16.9985
ltibia 34.0553
lfoot -20.8289 -2.09573
ltoes 27.129
